# Alias OBJ Model File
# Exported from SketchUp, (c) 2000-2012 Trimble Navigation Limited
# File units = inches

mtllib PE_1x1_1D.mtl

g Mesh1 Model

usemtl Color_C08
v 4 0 -236
vt 4 236
vn 0 1 -0
v 4 0 -4
vt 4 4
v 102 0 -4
vt 102 4
v 102 0 -0
vt 102 0
v 138 0 -0
vt 138 0
v 138 0 -4
vt 138 4
v 236 0 -4
vt 236 4
v 236 0 -236
vt 236 236
f 1/1/1 2/2/1 3/3/1 4/4/1 5/5/1 6/6/1 7/7/1 8/8/1 

usemtl Color_M08
v 240 0 -0
vt -240 0
vn 0 -1 -0
vt -138 0
vt -138 4
vt -236 4
vt -236 236
vt -4 236
vt -4 4
vt -102 4
vt -102 0
v 0 0 -0
vt 0 0
v 0 0 -240
vt 0 240
v 240 0 -240
vt -240 240
f 9/9/2 5/10/2 6/11/2 7/12/2 8/13/2 1/14/2 2/15/2 3/16/2 4/17/2 10/18/2 11/19/2 12/20/2 

vn 0 0 1
vt 240 0
v 240 96 -0
vt 240 96
v 0 96 -0
vt 0 96
v 102 80 -0
vt 102 80
v 138 80 -0
vt 138 80
f 5/5/3 9/21/3 13/22/3 14/23/3 10/18/3 4/4/3 15/24/3 16/25/3 

vn 1 0 -0
v 240 96 -240
f 9/18/4 12/21/4 17/22/4 13/23/4 

vn 0 0 -1
v 0 96 -240
vt -240 96
f 12/9/5 11/18/5 18/23/5 17/26/5 

vn -1 0 -0
f 11/9/6 10/18/6 14/23/6 18/26/6 

v 4 96 -4
f 14/18/1 19/2/1 18/19/1

f 19/2/1 14/18/1 13/21/1

v 236 96 -4
f 19/2/1 13/21/1 20/7/1

v 236 96 -236
f 20/7/1 13/21/1 21/8/1

vt 240 240
f 17/27/1 21/8/1 13/21/1

v 4 96 -236
f 17/27/1 22/1/1 21/8/1

f 18/19/1 22/1/1 17/27/1

f 22/1/1 18/19/1 19/2/1

usemtl Color_D01
vt 4 0
vt 236 0
vt 236 96
vt 4 96
f 2/28/4 1/29/4 22/30/4 19/31/4 

f 1/28/3 8/29/3 21/30/3 22/31/3 

vt -236 0
vt -4 0
vt -4 96
vt -236 96
f 8/32/6 7/33/6 20/34/6 21/35/6 

v 138 80 -4
vt -138 80
v 102 80 -4
vt -102 80
f 6/10/5 23/36/5 24/37/5 3/17/5 2/33/5 19/34/5 20/35/5 7/32/5 

vt -4 80
vt 0 80
f 23/38/6 6/33/6 5/18/6 16/39/6 

f 24/16/2 23/11/2 16/10/2 15/17/2 

vt 4 80
f 3/28/4 24/40/4 15/39/4 4/18/4 

