# Blender v3.2.2 OBJ File: ''
# www.blender.org
mtllib PE_1x1_1D.mtl
o PE_1x1_1D
v 0.400000 0.000004 -23.600006
v 0.400000 0.000000 -0.400000
v 10.200003 0.000000 -0.400000
v 10.200003 0.000000 0.000000
v 13.800003 0.000000 0.000000
v 13.800003 0.000000 -0.400000
v 23.600006 0.000000 -0.400000
v 23.600006 0.000004 -23.600006
v 24.000006 0.000000 0.000000
v 0.000000 0.000000 0.000000
v 0.000000 0.000004 -24.000006
v 24.000006 0.000004 -24.000006
v 24.000006 9.600002 0.000002
v 0.000000 9.600002 0.000002
v 10.200003 8.000002 0.000001
v 13.800003 8.000002 0.000001
v 24.000006 9.600006 -24.000004
v 0.000000 9.600006 -24.000004
v 0.400000 9.600002 -0.399999
v 23.600006 9.600002 -0.399999
v 23.600006 9.600006 -23.600004
v 0.400000 9.600006 -23.600004
v 13.800003 8.000002 -0.399999
v 10.200003 8.000002 -0.399999
vt 4.000000 236.000000
vt 4.000000 4.000000
vt 102.000000 4.000000
vt 102.000000 0.000000
vt 138.000000 0.000000
vt 138.000000 4.000000
vt 236.000000 4.000000
vt 236.000000 236.000000
vt -240.000000 0.000000
vt -138.000000 0.000000
vt -138.000000 4.000000
vt -236.000000 4.000000
vt -236.000000 236.000000
vt -4.000000 236.000000
vt -4.000000 4.000000
vt -102.000000 4.000000
vt -102.000000 0.000000
vt 0.000000 0.000000
vt 0.000000 240.000000
vt -240.000000 240.000000
vt 240.000000 0.000000
vt 240.000000 96.000000
vt 0.000000 96.000000
vt 102.000000 80.000000
vt 138.000000 80.000000
vt 0.000000 0.000000
vt 240.000000 0.000000
vt 240.000000 96.000000
vt 0.000000 96.000000
vt -240.000000 0.000000
vt 0.000000 0.000000
vt 0.000000 96.000000
vt -240.000000 96.000000
vt -240.000000 0.000000
vt -240.000000 96.000000
vt 0.000000 0.000000
vt 4.000000 4.000000
vt 0.000000 240.000000
vt 240.000000 0.000000
vt 236.000000 4.000000
vt 236.000000 236.000000
vt 240.000000 240.000000
vt 4.000000 236.000000
vt 4.000000 0.000000
vt 236.000000 0.000000
vt 236.000000 96.000000
vt 4.000000 96.000000
vt 4.000000 0.000000
vt 236.000000 0.000000
vt 236.000000 96.000000
vt 4.000000 96.000000
vt -236.000000 0.000000
vt -4.000000 0.000000
vt -4.000000 96.000000
vt -236.000000 96.000000
vt -138.000000 0.000000
vt -138.000000 80.000000
vt -102.000000 80.000000
vt -102.000000 0.000000
vt -4.000000 0.000000
vt -4.000000 96.000000
vt -236.000000 96.000000
vt -236.000000 0.000000
vt -4.000000 80.000000
vt -4.000000 0.000000
vt 0.000000 0.000000
vt 0.000000 80.000000
vt -102.000000 4.000000
vt -138.000000 4.000000
vt -138.000000 0.000000
vt -102.000000 0.000000
vt 4.000000 0.000000
vt 4.000000 80.000000
vt 0.000000 80.000000
vt 0.000000 0.000000
vn 0.0000 1.0000 0.0000
vn 0.0000 -1.0000 -0.0000
vn 0.0000 -0.0000 1.0000
vn 1.0000 0.0000 0.0000
vn 0.0000 0.0000 -1.0000
vn -1.0000 0.0000 0.0000
usemtl Color_C08
s 1
f 1/1/1 2/2/1 3/3/1 4/4/1 5/5/1 6/6/1 7/7/1 8/8/1
usemtl Color_M08
f 9/9/2 5/10/2 6/11/2 7/12/2 8/13/2 1/14/2 2/15/2 3/16/2 4/17/2 10/18/2 11/19/2 12/20/2
f 5/5/3 9/21/3 13/22/3 14/23/3 10/18/3 4/4/3 15/24/3 16/25/3
f 9/26/4 12/27/4 17/28/4 13/29/4
f 12/30/5 11/31/5 18/32/5 17/33/5
f 11/34/6 10/18/6 14/23/6 18/35/6
f 14/36/1 19/37/1 18/38/1
f 19/37/1 14/36/1 13/39/1
f 19/37/1 13/39/1 20/40/1
f 20/40/1 13/39/1 21/41/1
f 17/42/1 21/41/1 13/39/1
f 17/42/1 22/43/1 21/41/1
f 18/38/1 22/43/1 17/42/1
f 22/43/1 18/38/1 19/37/1
usemtl Color_D01
f 2/44/4 1/45/4 22/46/4 19/47/4
f 1/48/3 8/49/3 21/50/3 22/51/3
f 8/52/6 7/53/6 20/54/6 21/55/6
f 6/56/5 23/57/5 24/58/5 3/59/5 2/60/5 19/61/5 20/62/5 7/63/5
f 23/64/6 6/65/6 5/66/6 16/67/6
f 24/68/2 23/69/2 16/70/2 15/71/2
f 3/72/4 24/73/4 15/74/4 4/75/4
