# Blender v3.1.2 OBJ File: 'Room1Way.blend'
# www.blender.org
mtllib Room1Way.mtl
o Plane
v -3.048000 0.000000 -3.048000
v 3.048000 0.000000 -3.048000
v -2.933700 2.743200 -2.933700
v -2.933700 0.000000 -2.933700
v 2.933700 2.743200 -2.933700
v -2.933700 0.000000 2.933700
v -2.933700 2.743200 2.933700
v 2.933700 0.000000 2.933700
v 2.933700 0.000000 -2.933700
v 2.933700 2.743200 2.933700
v 3.048000 2.743200 -3.048000
v -3.048000 0.000000 3.048000
v -3.048000 2.743200 -3.048000
v -3.048000 2.743200 3.048000
v 3.048000 0.000000 3.048000
v 3.048000 2.743200 3.048000
v -0.457200 0.000000 3.048000
v 0.457200 0.000000 3.048000
v 0.457200 2.743200 2.933700
v -0.457200 2.743200 2.933700
v 0.457200 0.000000 2.933700
v -0.457200 0.000000 2.933700
v -0.457200 2.743200 3.048000
v 0.457200 2.743200 3.048000
v 0.457200 1.981200 2.933700
v -0.457200 1.981200 2.933700
v -0.457200 1.981200 3.048000
v 0.457200 1.981200 3.048000
vt 0.000000 1.000000
vt 0.000000 1.000000
vt 0.000000 0.000000
vt 0.000000 0.000000
vt 1.000000 1.000000
vt 0.000000 0.000000
vt 1.000000 0.000000
vt 1.000000 0.000000
vt 0.000000 1.000000
vt 0.000000 0.000000
vt 0.000000 0.000000
vt 1.000000 0.000000
vt 1.000000 1.000000
vt 1.000000 1.000000
vt 1.000000 0.000000
vt 1.000000 1.000000
vt 0.000000 1.000000
vt 0.000000 0.000000
vt 0.000000 0.000000
vt 0.000000 0.000000
vt 0.000000 0.000000
vt 0.000000 0.000000
vt 0.000000 0.000000
vt 0.000000 0.000000
vt 0.000000 0.000000
vt 0.000000 0.000000
vt 0.750000 0.000000
vt 0.000000 0.000000
vt 0.000000 0.000000
vt 0.000000 0.000000
vt 0.000000 0.000000
vt 0.250000 0.000000
vt 0.750000 0.000000
vn 1.0000 0.0000 0.0000
vn 0.0000 1.0000 0.0000
vn -1.0000 0.0000 0.0000
vn 0.0000 0.0000 1.0000
vn 0.0000 0.0000 -1.0000
vn 0.0000 -1.0000 0.0000
usemtl None
s off
f 4/1/1 3/2/1 7/3/1 6/4/1
f 11/5/2 5/6/2 10/7/2 16/8/2
f 13/9/2 14/10/2 7/3/2 3/11/2
f 8/12/3 10/7/3 5/13/3 9/14/3
f 15/15/1 2/16/1 11/5/1 16/8/1
f 1/17/3 12/18/3 14/10/3 13/9/3
f 4/1/4 9/14/4 5/13/4 3/2/4
f 8/12/2 9/14/2 4/1/2 6/4/2
f 11/5/2 13/9/2 3/11/2 5/13/2
f 11/5/5 2/16/5 1/17/5 13/9/5
f 20/19/2 23/20/2 24/21/2 19/22/2
f 18/23/2 21/24/2 22/25/2 17/26/2
f 16/8/2 10/7/2 19/22/2 24/27/2
f 20/19/2 7/3/2 14/10/2 23/20/2
f 26/28/6 25/29/6 28/30/6 27/31/6
f 12/18/4 17/32/4 27/31/4 23/20/4 14/10/4
f 24/21/4 23/20/4 27/31/4 28/30/4
f 15/15/4 16/8/4 24/27/4 28/30/4 18/33/4
f 7/3/5 20/19/5 26/28/5 22/25/5 6/4/5
f 20/19/5 19/22/5 25/29/5 26/28/5
f 8/12/5 21/24/5 25/29/5 19/22/5 10/7/5
f 18/33/3 28/30/3 25/29/3 21/24/3
f 22/25/1 26/28/1 27/31/1 17/32/1
